<svg viewBox="0 0 512 512" xmlns="http://www.w3.org/2000/svg" xmlns:xlink="http://www.w3.org/1999/xlink" width="512.000000" height="512.000000" fill="none" customFrame="#000000">
	<defs>
		<clipPath id="clipPath_3">
			<rect width="512.000000" height="512.000000" x="0.000000" y="0.000000" fill="rgb(255,255,255)" />
		</clipPath>
		<linearGradient id="paint_linear_27" x1="172.000061" x2="256" y1="2.28881836e-05" y2="512" gradientUnits="userSpaceOnUse">
			<stop stop-color="rgb(0,0,0)" offset="0" stop-opacity="0.600000024" />
			<stop stop-color="rgb(0,0,0)" offset="1" stop-opacity="1" />
		</linearGradient>
		<linearGradient id="paint_linear_28" x1="168" x2="300.999939" y1="55.9999847" y2="469.999939" gradientUnits="userSpaceOnUse">
			<stop stop-color="rgb(77,83,95)" offset="0" stop-opacity="1" />
			<stop stop-color="rgb(23,27,38)" offset="1" stop-opacity="1" />
		</linearGradient>
		<g id="pixso_custom_effect_6">
			<effect x="0.000000" y="8.000000" visibility="visible" fill="rgb(0,0,0)" fill-opacity="0.400000006" effectType="innerShadow" stdDeviation="5" radius="0" />
		</g>
		<filter id="filter_6" width="376.000000" height="376.000000" x="68.000000" y="68.000000" filterUnits="userSpaceOnUse" customEffect="url(#pixso_custom_effect_6)" color-interpolation-filters="sRGB">
			<feFlood flood-opacity="0" result="BackgroundImageFix" />
			<feBlend result="shape" in="SourceGraphic" in2="BackgroundImageFix" mode="normal" />
			<feColorMatrix result="hardAlpha" in="SourceAlpha" type="matrix" values="0 0 0 0 0 0 0 0 0 0 0 0 0 0 0 0 0 0 2 0 " />
			<feOffset dx="0.000000" dy="8.000000" in="hardAlpha" />
			<feGaussianBlur stdDeviation="1.66666663" />
			<feComposite k2="-1" k3="1" in2="hardAlpha" operator="arithmetic" />
			<feColorMatrix type="matrix" values="0 0 0 0 0 0 0 0 0 0 0 0 0 0 0 0 0 0 0.4 0 " />
			<feBlend result="effect_innerShadow_1" in2="shape" mode="normal" />
		</filter>
		<linearGradient id="paint_linear_29" x1="171.999985" x2="296.999939" y1="88.4999847" y2="444" gradientUnits="userSpaceOnUse">
			<stop stop-color="rgb(224,223,223)" offset="0" stop-opacity="1" />
			<stop stop-color="rgb(196,196,196)" offset="1" stop-opacity="0.5" />
		</linearGradient>
		<g id="pixso_custom_effect_7">
			<effect x="0.000000" y="8.000000" visibility="visible" fill="rgb(0,0,0)" fill-opacity="0.400000006" effectType="innerShadow" stdDeviation="5" radius="0" />
		</g>
		<filter id="filter_7" width="376.000000" height="376.000000" x="68.000000" y="68.000000" filterUnits="userSpaceOnUse" customEffect="url(#pixso_custom_effect_7)" color-interpolation-filters="sRGB">
			<feFlood flood-opacity="0" result="BackgroundImageFix" />
			<feBlend result="shape" in="SourceGraphic" in2="BackgroundImageFix" mode="normal" />
			<feColorMatrix result="hardAlpha" in="SourceAlpha" type="matrix" values="0 0 0 0 0 0 0 0 0 0 0 0 0 0 0 0 0 0 10 0 " />
			<feOffset dx="0.000000" dy="8.000000" in="hardAlpha" />
			<feGaussianBlur stdDeviation="1.66666663" />
			<feComposite k2="-1" k3="1" in2="hardAlpha" operator="arithmetic" />
			<feColorMatrix type="matrix" values="0 0 0 0 0 0 0 0 0 0 0 0 0 0 0 0 0 0 0.4 0 " />
			<feBlend result="effect_innerShadow_1" in2="shape" mode="normal" />
		</filter>
		<linearGradient id="paint_linear_30" x1="324.934021" x2="312.999908" y1="106.921555" y2="433.5" gradientUnits="userSpaceOnUse">
			<stop stop-color="rgb(83,83,83)" offset="0" stop-opacity="0.100000001" />
			<stop stop-color="rgb(99,110,121)" offset="0.860759497" stop-opacity="1" />
		</linearGradient>
		<linearGradient id="paint_linear_31" x1="182.392532" x2="293.640137" y1="88.7102737" y2="434.999939" gradientUnits="userSpaceOnUse">
			<stop stop-color="rgb(77,83,95)" offset="0" stop-opacity="1" />
			<stop stop-color="rgb(23,27,38)" offset="1" stop-opacity="1" />
		</linearGradient>
		<linearGradient id="paint_linear_32" x1="282" x2="211.500031" y1="115.999992" y2="246.5" gradientUnits="userSpaceOnUse">
			<stop stop-color="rgb(170,222,255)" offset="0" stop-opacity="1" />
			<stop stop-color="rgb(87,185,237)" offset="0.995780587" stop-opacity="1" />
		</linearGradient>
		<linearGradient id="paint_linear_33" x1="248.726837" x2="357.877625" y1="236.634964" y2="291.25293" gradientUnits="userSpaceOnUse">
			<stop stop-color="rgb(19,65,114)" offset="0" stop-opacity="1" />
			<stop stop-color="rgb(64,133,208)" offset="1" stop-opacity="1" />
		</linearGradient>
		<linearGradient id="paint_linear_34" x1="114.865845" x2="237.114532" y1="260.429077" y2="305.544708" gradientUnits="userSpaceOnUse">
			<stop stop-color="rgb(80,166,223)" offset="0" stop-opacity="1" />
			<stop stop-color="rgb(40,104,175)" offset="1" stop-opacity="1" />
		</linearGradient>
	</defs>
	<g id="Group 1">
		<g id="Frame 1" clip-path="url(#clipPath_3)" customFrame="url(#clipPath_3)">
			<rect id="Frame 1" width="512.000000" height="512.000000" x="0.000000" y="0.000000" />
			<path id="Oval 1" d="M0 256C0 114.615 114.615 0 256 0C397.385 0 512 114.615 512 256C512 397.385 397.385 512 256 512C114.615 512 0 397.385 0 256Z" fill="rgb(122,192,244)" fill-rule="evenodd" />
			<path id="Oval 1(Border)" d="M256 0C397.385 0 512 114.615 512 256C512 397.385 397.385 512 256 512C114.615 512 0 397.385 0 256C0 114.615 114.615 0 256 0ZM219.43 9.66403L219.43 9.66409L219.423 9.66508C214.867 10.3362 210.329 11.1342 205.81 12.0589C197.716 13.7153 189.743 15.7653 181.894 18.209C174.171 20.6132 166.566 23.3985 159.08 26.5648C152.807 29.2181 146.663 32.1192 140.65 35.268L140.648 35.2689C132.453 39.5596 124.5 44.3104 116.787 49.5211C110.704 53.6304 104.825 57.9897 99.148 62.5989L99.1469 62.5998C92.4597 68.0298 86.0542 73.8066 79.9304 79.9304C73.8064 86.0544 68.0294 92.46 62.5994 99.1474C57.99 104.824 53.6305 110.704 49.5211 116.787C44.3134 124.495 39.5651 132.444 35.2762 140.634C32.1243 146.653 29.2204 152.801 26.5648 159.08C23.3978 166.568 20.612 174.174 18.2074 181.899L18.207 181.9C15.7643 189.748 13.7149 197.718 12.0589 205.81C11.1346 210.328 10.3369 214.863 9.66586 219.418L9.66425 219.429C7.88808 231.488 6.99998 243.679 6.99997 256C6.99997 268.323 7.88826 280.514 9.66483 292.575C10.3361 297.132 11.1341 301.67 12.0589 306.19C13.7162 314.289 15.7676 322.265 18.2129 330.119C20.6163 337.838 23.4002 345.438 26.5648 352.92C29.2221 359.203 32.128 365.355 35.2823 371.378L35.2832 371.379L35.285 371.383C39.5716 379.567 44.317 387.51 49.5211 395.213C53.6351 401.303 57.9996 407.189 62.6147 412.871L62.6169 412.874L62.6189 412.877C68.0433 419.555 73.8138 425.953 79.9304 432.07C86.0596 438.199 92.4709 443.98 99.1644 449.414L99.1665 449.416C104.837 454.02 110.711 458.374 116.787 462.479C124.496 467.687 132.447 472.436 140.638 476.726C146.656 479.877 152.803 482.78 159.08 485.435C166.566 488.602 174.171 491.387 181.895 493.791C189.744 496.235 197.716 498.285 205.81 499.941C210.332 500.866 214.872 501.665 219.431 502.336L219.441 502.337C231.496 504.112 243.683 505 256 505C268.318 505 280.506 504.112 292.563 502.337L292.564 502.337C297.124 501.665 301.666 500.867 306.19 499.941C314.289 498.284 322.266 496.232 330.12 493.787C337.838 491.384 345.438 488.6 352.92 485.435C359.2 482.779 365.351 479.874 371.371 476.721L371.38 476.717C379.565 472.43 387.509 467.684 395.213 462.479C401.298 458.368 407.179 454.008 412.857 449.397L412.859 449.396C419.544 443.967 425.948 438.192 432.07 432.07C438.192 425.947 443.968 419.543 449.397 412.857L449.401 412.853C454.01 407.176 458.369 401.296 462.479 395.213C467.686 387.506 472.434 379.557 476.723 371.368L476.725 371.363C479.877 365.345 482.78 359.197 485.435 352.92C488.6 345.438 491.384 337.838 493.787 330.12C496.232 322.266 498.284 314.289 499.941 306.19C500.867 301.667 501.665 297.125 502.337 292.565C504.112 280.508 505 268.319 505 256C505 243.683 504.113 231.497 502.338 219.441C501.666 214.879 500.867 210.335 499.941 205.81C498.285 197.716 496.235 189.745 493.792 181.896C491.387 174.172 488.602 166.567 485.435 159.08C482.782 152.807 479.88 146.663 476.731 140.649L476.731 140.648C472.44 132.453 467.69 124.499 462.479 116.787C458.373 110.71 454.018 104.835 449.414 99.1636C443.98 92.4704 438.199 86.0593 432.07 79.9304C425.953 73.8136 419.555 68.043 412.876 62.6184L412.874 62.6169L412.871 62.6143C407.189 57.9994 401.303 53.635 395.213 49.5211C387.509 44.3159 379.563 39.5696 371.378 35.2823C365.355 32.128 359.203 29.2221 352.92 26.5648C345.44 23.401 337.842 20.6177 330.125 18.2148L330.119 18.2131L330.115 18.2118C322.263 15.7669 314.287 13.716 306.19 12.0589C301.679 11.1359 297.15 10.3392 292.602 9.66885L292.577 9.6651L292.576 9.66498C280.515 7.88832 268.323 6.99998 256 6.99997C243.679 6.99997 231.489 7.88799 219.43 9.66403Z" fill="url(#paint_linear_27)" fill-rule="evenodd" />
			<path id="Oval 2" d="M42 256C42 137.811 137.811 42 256 42C374.189 42 470 137.811 470 256C470 374.189 374.189 470 256 470C137.811 470 42 374.189 42 256Z" fill="url(#paint_linear_28)" fill-rule="evenodd" />
			<g filter="url(#filter_6)">
				<path id="Oval 3" d="M68 256C68 152.17 152.17 68 256 68C359.83 68 444 152.17 444 256C444 359.83 359.83 444 256 444C152.17 444 68 359.83 68 256Z" fill="url(#paint_linear_29)" fill-rule="evenodd" />
			</g>
			<g filter="url(#filter_7)">
				<path id="Oval 3(Border)" d="M256 68C359.83 68 444 152.17 444 256C444 359.83 359.83 444 256 444C152.17 444 68 359.83 68 256C68 152.17 152.17 68 256 68ZM229.027 73.9613L229.026 73.9615L229.019 73.9625C225.637 74.4599 222.268 75.0518 218.913 75.7383C212.93 76.9626 207.038 78.4779 201.236 80.2842L201.234 80.2848C195.528 82.0612 189.91 84.1189 184.38 86.458C179.738 88.4213 175.193 90.5681 170.743 92.8984L170.743 92.8988C164.693 96.0672 158.821 99.575 153.127 103.422C148.63 106.46 144.283 109.683 140.087 113.091L140.085 113.092C135.146 117.102 130.415 121.369 125.892 125.892C121.37 130.415 117.104 135.145 113.094 140.083L113.094 140.083C109.685 144.281 106.461 148.628 103.422 153.127C99.5757 158.82 96.0686 164.691 92.9007 170.739L92.9 170.74C90.569 175.191 88.4217 179.737 86.458 184.38C84.1187 189.911 82.0608 195.529 80.2844 201.235C78.478 207.037 76.9627 212.93 75.7383 218.913C75.0522 222.266 74.4605 225.633 73.9633 229.014L73.9616 229.025C72.6539 237.921 72 246.912 72 256C72 265.085 72.6535 274.074 73.9605 282.968L73.9607 282.969L73.9615 282.974C74.4591 286.359 75.0513 289.73 75.7383 293.087C76.9626 299.07 78.4778 304.962 80.2841 310.764L80.2849 310.767C82.0612 316.472 84.1189 322.09 86.458 327.62C88.4219 332.263 90.5694 336.81 92.9006 341.261L92.9038 341.267C96.0709 347.313 99.577 353.182 103.422 358.873C106.461 363.372 109.686 367.721 113.095 371.919L113.099 371.923C117.107 376.859 121.372 381.587 125.892 386.108C130.413 390.628 135.142 394.893 140.078 398.902L140.079 398.903C144.278 402.313 148.627 405.538 153.127 408.578C158.823 412.427 164.698 415.936 170.75 419.105C175.198 421.434 179.741 423.58 184.38 425.542C189.918 427.884 195.543 429.944 201.257 431.722L201.259 431.723C207.053 433.526 212.938 435.039 218.913 436.262C222.262 436.947 225.625 437.538 229.002 438.035L229.003 438.035C237.906 439.345 246.905 440 256 440C265.094 440 274.091 439.345 282.992 438.036C286.371 437.539 289.736 436.947 293.087 436.262C299.063 435.039 304.948 433.526 310.743 431.722C316.457 429.944 322.082 427.884 327.62 425.542C332.259 423.58 336.802 421.435 341.248 419.106L341.257 419.102L341.258 419.101C347.308 415.932 353.179 412.425 358.873 408.578C363.37 405.54 367.717 402.317 371.913 398.91L371.917 398.907C376.855 394.896 381.585 390.63 386.108 386.108C390.629 381.586 394.895 376.856 398.905 371.919C402.314 367.721 405.539 363.372 408.578 358.873C412.427 353.176 415.937 347.3 419.107 341.246L419.109 341.243C421.436 336.798 423.581 332.257 425.542 327.62C427.884 322.084 429.943 316.459 431.721 310.748C433.525 304.951 435.039 299.064 436.262 293.087C436.947 289.739 437.538 286.377 438.035 283.001L438.036 282.992C439.345 274.091 440 265.094 440 256C440 246.904 439.345 237.905 438.035 229.003C437.538 225.626 436.947 222.263 436.262 218.913C435.039 212.938 433.526 207.054 431.723 201.259L431.723 201.258C429.945 195.544 427.884 189.918 425.542 184.38C423.579 179.74 421.433 175.196 419.104 170.748C415.935 164.696 412.426 158.823 408.578 153.127C405.538 148.627 402.313 144.277 398.902 140.078C394.893 135.141 390.628 130.413 386.108 125.892C381.586 121.371 376.856 117.105 371.919 113.095C367.721 109.686 363.372 106.461 358.873 103.422C353.18 99.5754 347.309 96.0681 341.26 92.9L341.258 92.8991L341.254 92.8968C336.805 90.5671 332.26 88.4208 327.62 86.458C322.091 84.1193 316.474 82.0619 310.769 80.2858C304.966 78.4788 299.072 76.963 293.087 75.7383C289.734 75.0522 286.367 74.4605 282.986 73.9633L282.975 73.9616C274.079 72.6539 265.088 72 256 72C246.913 72 237.922 72.6538 229.027 73.9613Z" fill="url(#paint_linear_30)" fill-rule="evenodd" />
			</g>
			<path id="Oval 4" d="M77 256C77 157.141 157.141 77 256 77C354.859 77 435 157.141 435 256C435 354.859 354.859 435 256 435C157.141 435 77 354.859 77 256Z" fill="url(#paint_linear_31)" fill-rule="evenodd" />
			<path id="Vector 1" d="M256.5 116L135 184.5L256.5 257.5L378.5 184.5L256.5 116Z" fill="url(#paint_linear_32)" fill-rule="evenodd" />
			<path id="Vector 2" d="M256.499 398.008L256.499 257.508L378.493 184.498L378.999 328.508L256.499 398.008Z" fill="url(#paint_linear_33)" fill-rule="evenodd" />
			<path id="Vector 3" d="M256.499 398.007L256.499 257.495L135.004 184.484L133.528 328.893L256.499 398.007Z" fill="url(#paint_linear_34)" fill-rule="evenodd" />
			<path id="Vector 4" d="M256.499 308.955L133.734 308.955L133.514 328.883L256.499 398.007L256.499 308.955Z" fill="rgb(17,63,115)" fill-rule="evenodd" />
		</g>
	</g>
</svg>
